# xmcd
#
# Track frame offsets:
#	150
#	17262
#	35085
#	51484
#	72372
#	89417
#	106584
#	124584
#	146372
#	177039
#
# Disc length: 2599 seconds
#
# Revision: 1
# Processed by: cddbd v1.5.2PL0 Copyright (c) Steve Scherf et al.
# Submitted via: audiograbber 1.83.01
#
DISCID=7d0a250a
DTITLE=ASK - ASK-1302A All Star Karaoke Feb 2013
DYEAR=2013
DGENRE=Karaoke
TTITLE0=Swedish House Mafia ft John Martin - Don't You Worry Child
TTITLE1=Kristen Kelly - He Loves To Make Me Cry
TTITLE2=Kip Moore - Hey Pretty Girl
TTITLE3=Tim McGraw ft T Swift and K Urban - Highway Don't Care
TTITLE4=Chris Young - Neon
TTITLE5=Kenny Chesney - Pirate Flag
TTITLE6=Script, The - Six Degrees of Separation
TTITLE7=Calvin Harris ft Florence welch - Sweet Nothing
TTITLE8=LeAnn Rimes - What Have I Done
TTITLE9=Data Track - Data Track
EXTD=
EXTT0=
EXTT1=
EXTT2=
EXTT3=
EXTT4=
EXTT5=
EXTT6=
EXTT7=
EXTT8=
EXTT9=
PLAYORDER=
